<svg width="48" height="30" viewBox="0 0 48 30" fill="none" xmlns="http://www.w3.org/2000/svg">
<path fill-rule="evenodd" clip-rule="evenodd" d="M0 6C0 4.4087 0.632141 2.88258 1.75736 1.75736C2.88258 0.632141 4.4087 4.15537e-08 6 4.15537e-08H28.5C29.9553 -0.000171144 31.361 0.528578 32.4554 1.48778C33.5499 2.44699 34.2584 3.77126 34.449 5.214L43.779 1.068C44.2357 0.864515 44.736 0.778391 45.2344 0.817456C45.7328 0.856522 46.2136 1.01954 46.633 1.29169C47.0524 1.56384 47.3972 1.93649 47.6359 2.37577C47.8746 2.81505 47.9998 3.30704 48 3.807V26.193C47.9996 26.6926 47.8744 27.1841 47.6358 27.6231C47.3972 28.062 47.0528 28.4344 46.6338 28.7064C46.2148 28.9785 45.7346 29.1417 45.2365 29.181C44.7385 29.2204 44.2385 29.1348 43.782 28.932L34.449 24.786C34.2584 26.2287 33.5499 27.553 32.4554 28.5122C31.361 29.4714 29.9553 30.0002 28.5 30H6C4.4087 30 2.88258 29.3679 1.75736 28.2426C0.632141 27.1174 0 25.5913 0 24V6Z" fill="white"/>
</svg>
